<svg width="80" height="80" viewBox="0 0 80 80" fill="none" xmlns="http://www.w3.org/2000/svg">
<circle cx="40" cy="40" r="40" fill="white"/>
<g clip-path="url(#clip0_2_448)">
<path d="M54.1458 24.0833H41.8125C40.7903 24.0833 39.81 24.4894 39.0872 25.2122C38.3644 25.935 37.9583 26.9153 37.9583 27.9375V28.4L36.0081 25.0176C35.7618 24.5624 35.4275 24.1607 35.0248 23.8357C34.622 23.5107 34.1587 23.2689 33.6617 23.1244C32.8352 22.8918 31.9546 22.9419 31.1597 23.2667C30.3649 23.5915 29.7012 24.1724 29.2741 24.9173L21.5781 38.2466C21.3082 38.6876 21.1283 39.1778 21.0489 39.6888C20.9695 40.1997 20.9922 40.7214 21.1156 41.2235C21.3275 42.054 21.8101 42.7901 22.4872 43.3156C23.1642 43.841 23.9971 44.1258 24.8542 44.1249H29.0167C28.5512 45.7484 28.4691 47.4578 28.7769 49.1183C29.0847 50.7789 29.774 52.3453 30.7903 53.6941C31.8067 55.0429 33.1225 56.1372 34.6339 56.8907C36.1454 57.6443 37.8111 58.0365 39.5 58.0365C41.1889 58.0365 42.8547 57.6443 44.3661 56.8907C45.8775 56.1372 47.1933 55.0429 48.2097 53.6941C49.2261 52.3453 49.9153 50.7789 50.2231 49.1183C50.5309 47.4578 50.4488 45.7484 49.9833 44.1249H54.1458C54.652 44.1249 55.1531 44.0253 55.6208 43.8316C56.0884 43.6379 56.5132 43.354 56.8711 42.9961C57.229 42.6382 57.5129 42.2133 57.7066 41.7457C57.9003 41.2781 58 40.7769 58 40.2708V27.9375C58 27.4313 57.9003 26.9302 57.7066 26.4625C57.5129 25.9949 57.229 25.5701 56.8711 25.2122C56.5132 24.8543 56.0884 24.5704 55.6208 24.3767C55.1531 24.183 54.652 24.0833 54.1458 24.0833ZM26.1954 39.5L32.6118 28.3861L37.2523 36.4166C35.1295 36.8656 33.1896 37.9394 31.6822 39.5H26.1954ZM39.5 53.3749C38.2578 53.3749 37.0435 53.0066 36.0106 52.3164C34.9777 51.6263 34.1727 50.6454 33.6974 49.4977C33.222 48.3501 33.0976 47.0872 33.3399 45.8689C33.5823 44.6505 34.1805 43.5314 35.0588 42.653C35.9372 41.7747 37.0563 41.1765 38.2747 40.9341C39.493 40.6918 40.7559 40.8162 41.9035 41.2915C43.0512 41.7669 44.0321 42.5719 44.7223 43.6048C45.4124 44.6377 45.7808 45.852 45.7808 47.0942C45.7787 48.7593 45.1163 50.3557 43.9389 51.5331C42.7615 52.7105 41.1651 53.3729 39.5 53.3749ZM53.375 39.5H47.3178C45.9964 38.1725 44.3714 37.1872 42.5833 36.6294V28.7083H53.375V39.5Z" fill="#101828"/>
</g>
<defs>
<clipPath id="clip0_2_448">
<rect width="37" height="37" fill="white" transform="translate(21 21)"/>
</clipPath>
</defs>
</svg>
